<svg width="14" height="14" viewBox="0 0 14 14" fill="none" xmlns="http://www.w3.org/2000/svg">
<g clip-path="url(#clip0_9_212)">
<path d="M10.4591 10.3024C9.46196 11.0082 8.24777 11.3992 6.99412 11.4182C2.91079 11.4182 0.577454 7.08489 0.577454 7.08489C1.30306 5.82925 2.30945 4.73222 3.52912 3.86739M5.76912 2.88156C6.17065 2.79428 6.58174 2.75066 6.99412 2.75156C11.0775 2.75156 13.4108 7.08489 13.4108 7.08489C13.0567 7.70001 12.6344 8.27912 12.1508 8.81281M8.23079 8.23322C8.07058 8.39288 7.87737 8.52093 7.66271 8.60975C7.44804 8.69856 7.21631 8.74632 6.98134 8.75017C6.74637 8.75402 6.51296 8.71388 6.29506 8.63216C6.07715 8.55043 5.87921 8.42878 5.71303 8.27447C5.54685 8.12017 5.41585 7.93636 5.32783 7.73402C5.23982 7.53168 5.19659 7.31495 5.20074 7.09676C5.20489 6.87857 5.25632 6.66339 5.35196 6.46406C5.44761 6.26473 5.58552 6.08532 5.75745 5.93656M0.577454 1.12656L13.4108 13.0432" stroke="#CCCCCC" stroke-linecap="round" stroke-linejoin="round"/>
</g>
<defs>
<clipPath id="clip0_9_212">
<rect width="14" height="13" fill="white" transform="translate(-0.00585938 0.5849)"/>
</clipPath>
</defs>
</svg>
