<svg width="29" height="29" viewBox="0 0 29 29" fill="none" xmlns="http://www.w3.org/2000/svg">
<mask id="path-1-outside-1_7_102" maskUnits="userSpaceOnUse" x="0.141876" y="0.537537" width="29" height="29" fill="black">
<rect fill="white" x="0.141876" y="0.537537" width="29" height="29"/>
<path fill-rule="evenodd" clip-rule="evenodd" d="M14.9567 2.28754C14.9567 1.87332 14.6209 1.53754 14.2067 1.53754C13.7925 1.53754 13.4567 1.87332 13.4567 2.28754V13.8524H1.89188C1.47766 13.8524 1.14188 14.1882 1.14188 14.6024C1.14188 15.0166 1.47766 15.3524 1.89188 15.3524H13.4567V26.9173C13.4567 27.3315 13.7925 27.6673 14.2067 27.6673C14.6209 27.6673 14.9567 27.3315 14.9567 26.9173V15.3524H26.5216C26.9359 15.3524 27.2716 15.0166 27.2716 14.6024C27.2716 14.1882 26.9359 13.8524 26.5216 13.8524H14.9567V2.28754Z"/>
</mask>
<path fill-rule="evenodd" clip-rule="evenodd" d="M14.9567 2.28754C14.9567 1.87332 14.6209 1.53754 14.2067 1.53754C13.7925 1.53754 13.4567 1.87332 13.4567 2.28754V13.8524H1.89188C1.47766 13.8524 1.14188 14.1882 1.14188 14.6024C1.14188 15.0166 1.47766 15.3524 1.89188 15.3524H13.4567V26.9173C13.4567 27.3315 13.7925 27.6673 14.2067 27.6673C14.6209 27.6673 14.9567 27.3315 14.9567 26.9173V15.3524H26.5216C26.9359 15.3524 27.2716 15.0166 27.2716 14.6024C27.2716 14.1882 26.9359 13.8524 26.5216 13.8524H14.9567V2.28754Z" fill="white"/>
<path d="M13.4567 13.8524V14.8524H14.4567V13.8524H13.4567ZM1.14188 14.6024H2.14188H1.14188ZM13.4567 15.3524H14.4567V14.3524H13.4567V15.3524ZM14.9567 15.3524V14.3524H13.9567V15.3524H14.9567ZM14.9567 13.8524H13.9567V14.8524H14.9567V13.8524ZM14.2067 2.53754C14.0686 2.53754 13.9567 2.42561 13.9567 2.28754H15.9567C15.9567 1.32104 15.1732 0.537537 14.2067 0.537537V2.53754ZM14.4567 2.28754C14.4567 2.42561 14.3448 2.53754 14.2067 2.53754V0.537537C13.2402 0.537537 12.4567 1.32104 12.4567 2.28754H14.4567ZM14.4567 13.8524V2.28754H12.4567V13.8524H14.4567ZM1.89188 14.8524H13.4567V12.8524H1.89188V14.8524ZM2.14188 14.6024C2.14188 14.7405 2.02995 14.8524 1.89188 14.8524V12.8524C0.925379 12.8524 0.141876 13.6359 0.141876 14.6024H2.14188ZM1.89188 14.3524C2.02995 14.3524 2.14188 14.4643 2.14188 14.6024H0.141876C0.141876 15.5689 0.925378 16.3524 1.89188 16.3524V14.3524ZM13.4567 14.3524H1.89188V16.3524H13.4567V14.3524ZM14.4567 26.9173V15.3524H12.4567V26.9173H14.4567ZM14.2067 26.6673C14.3448 26.6673 14.4567 26.7792 14.4567 26.9173H12.4567C12.4567 27.8838 13.2402 28.6673 14.2067 28.6673V26.6673ZM13.9567 26.9173C13.9567 26.7792 14.0686 26.6673 14.2067 26.6673V28.6673C15.1732 28.6673 15.9567 27.8838 15.9567 26.9173H13.9567ZM13.9567 15.3524V26.9173H15.9567V15.3524H13.9567ZM26.5216 14.3524H14.9567V16.3524H26.5216V14.3524ZM26.2716 14.6024C26.2716 14.4643 26.3836 14.3524 26.5216 14.3524V16.3524C27.4881 16.3524 28.2716 15.5689 28.2716 14.6024H26.2716ZM26.5216 14.8524C26.3836 14.8524 26.2716 14.7405 26.2716 14.6024H28.2716C28.2716 13.6359 27.4881 12.8524 26.5216 12.8524V14.8524ZM14.9567 14.8524H26.5216V12.8524H14.9567V14.8524ZM13.9567 2.28754V13.8524H15.9567V2.28754H13.9567Z" fill="white" mask="url(#path-1-outside-1_7_102)"/>
</svg>
